<svg width="34" height="18" viewBox="0 0 34 18" fill="none" xmlns="http://www.w3.org/2000/svg">
<path d="M17.1158 4.00415C26.4396 4.17441 33.8944 10.0063 33.7662 17.0295C33.7621 17.2533 33.7503 17.4759 33.7311 17.6965H0.0631104C0.0147938 17.2741 -0.00628608 16.8459 0.00158691 16.4133C0.129799 9.39014 7.79216 3.83409 17.1158 4.00415ZM25.1949 10.4417C24.778 9.64573 23.8943 9.28624 23.2203 9.63892C22.5464 9.99195 22.3376 10.9239 22.7545 11.72C23.1715 12.516 24.0561 12.8747 24.7301 12.5217C25.4039 12.1686 25.6119 11.2377 25.1949 10.4417ZM9.52405 9.53052C8.82205 9.23771 7.97279 9.67223 7.62659 10.5012C7.2805 11.3306 7.56896 12.2404 8.27112 12.5334C8.97325 12.8264 9.82244 12.392 10.1686 11.5627C10.5147 10.7334 10.2262 9.82353 9.52405 9.53052Z" fill="#1F222E"/>
<rect x="3.99933" y="1.42236" width="2.82936" height="7.53051" rx="1.41468" transform="rotate(-30.178 3.99933 1.42236)" fill="#1F222E"/>
<rect x="24.9041" y="0.00012207" width="2.82936" height="7.53051" rx="1.41468" transform="rotate(22.6893 24.9041 0.00012207)" fill="#1F222E"/>
</svg>
