<svg width="40" height="40" viewBox="0 0 40 40" fill="none" xmlns="http://www.w3.org/2000/svg">
<path d="M22.5125 16.9155L20.2901 18.9847L18.2272 14.8219L19.2929 12.4283C19.5622 11.9509 20.0028 11.9446 20.2721 12.4283L22.5125 16.9155Z" fill="#1F222E"/>
<path d="M20.291 18.9838L11.978 26.7159L18.2281 14.8219L20.291 18.9838Z" fill="#1F222E"/>
<path d="M24.9493 13.7507C25.3475 13.3715 25.7574 13.4994 25.861 14.0381L28.0221 26.6113L20.8541 30.9147C20.6027 31.0552 19.9361 31.1102 19.9361 31.1102C19.9361 31.1102 19.3298 31.0363 19.0974 30.9084L11.978 26.7158L24.9493 13.7507Z" fill="#1F222E"/>
<path d="M18.2281 14.8218L11.978 26.7158L14.7634 9.33115C14.8679 8.79244 15.1733 8.73749 15.4489 9.21494L18.2281 14.8218Z" fill="#1F222E"/>
</svg>
