<svg width="32" height="33" viewBox="0 0 32 33" fill="none" xmlns="http://www.w3.org/2000/svg">
<path d="M24.1462 7.33337H15.5854C15.5854 8.39033 15.9925 9.404 16.7173 10.1514C17.442 10.8988 18.425 11.3186 19.4499 11.3186H21.0269V12.8889C21.0283 15.0879 22.7565 16.8702 24.8889 16.8716V8.09924C24.8889 7.67638 24.5565 7.33337 24.1462 7.33337Z" fill="#1F222E"/>
<path d="M19.9103 11.7322H11.3495C11.3509 13.9312 13.0791 15.7135 15.2116 15.7149H16.7886V17.2902C16.7913 19.4892 18.5207 21.2703 20.6531 21.2703V12.4982C20.6531 12.0752 20.3205 11.7322 19.9103 11.7322V11.7322Z" fill="#1F222E"/>
<path d="M15.672 16.1285H7.11115C7.11115 18.3296 8.84141 20.1138 10.9756 20.1138H12.5576V21.684C12.559 23.881 14.2842 25.6625 16.4147 25.6667V16.8945C16.4147 16.4715 16.0822 16.1285 15.672 16.1285Z" fill="#1F222E"/>
</svg>
