<svg width="42" height="42" viewBox="0 0 42 42" fill="none" xmlns="http://www.w3.org/2000/svg">
<path d="M20.927 9.39709L21.5496 10.5666C21.6896 10.7824 21.8413 10.9734 22.0199 11.1513C22.5436 11.6685 23.0318 12.2205 23.481 12.8035C24.5361 14.1888 25.2477 15.7272 25.7559 17.3911C26.0606 18.4075 26.2262 19.4501 26.2386 20.5044C26.2896 23.6563 25.209 26.3628 23.0304 28.6121C22.6761 28.9688 22.2932 29.2961 21.8857 29.5906C21.6699 29.5906 21.5678 29.4251 21.4789 29.2727C21.3169 28.9901 21.2091 28.6798 21.161 28.3577C21.0844 27.9763 21.0341 27.595 21.0589 27.2013V27.0234C21.0414 26.9855 20.8511 9.48678 20.927 9.39709Z" fill="#1F222E"/>
<path d="M20.927 9.35846C20.9015 9.30742 20.876 9.34606 20.8504 9.37085C20.8628 9.62604 20.7739 9.85353 20.6346 10.0708C20.4815 10.2866 20.2788 10.4521 20.0754 10.63C18.9453 11.6085 18.0557 12.7904 17.3434 14.1123C16.3955 15.8913 15.907 17.7979 15.7685 19.8052C15.7051 20.5292 15.9975 23.084 16.2257 23.8211C16.8483 25.7781 17.9668 27.4179 19.4155 28.8411C19.7713 29.1838 20.1519 29.5017 20.5457 29.8072C20.6601 29.8072 20.6725 29.7051 20.6988 29.6293C20.749 29.467 20.7872 29.3013 20.8132 29.1335L21.0684 27.2276L20.927 9.35846Z" fill="#1F222E"/>
<path d="M21.5496 30.3649C21.5752 30.0732 21.7152 29.8312 21.8675 29.5898C21.7144 29.5264 21.6007 29.4003 21.5117 29.2595C21.435 29.1263 21.3715 28.9859 21.3222 28.8403C21.1443 28.3066 21.1063 27.7466 21.0553 27.2013V26.871C20.9919 26.922 20.9787 27.3536 20.9787 27.4178C20.9416 27.9942 20.8652 28.5674 20.7498 29.1334C20.7119 29.3623 20.6864 29.5905 20.5457 29.794C20.5457 29.8195 20.5457 29.845 20.558 29.8829C20.787 30.5566 20.8497 31.2427 20.8883 31.9419V32.1971C20.8883 32.5019 20.8759 32.4377 21.1289 32.5398C21.231 32.5777 21.3448 32.5908 21.4468 32.6667C21.5234 32.6667 21.5358 32.6032 21.5358 32.5522L21.4979 32.133V30.9635C21.4855 30.7593 21.5234 30.5566 21.5489 30.3656L21.5496 30.3649Z" fill="#1F222E"/>
</svg>
