<svg width="24" height="24" viewBox="0 0 24 24" fill="none" xmlns="http://www.w3.org/2000/svg">
<path d="M12.9019 1.23471C12.3559 0.921059 11.6441 0.922469 11.0976 1.23471C10.4242 1.61431 9.75077 1.99394 9.07733 2.37358C7.01378 3.53686 4.95016 4.70018 2.88628 5.86283C2.35361 6.14906 1.99434 6.73334 2.00007 7.3398V16.6615C1.99622 17.2798 2.37402 17.8697 2.92042 18.152C3.21706 18.3132 3.51051 18.4806 3.80394 18.6479C4.2883 18.9242 4.77261 19.2004 5.27111 19.4487C6.19578 19.9128 7.35263 20.0155 8.28861 19.5315C9.04836 19.1303 9.38581 18.2382 9.38487 17.4183C9.38873 15.4753 9.38809 13.5322 9.38745 11.5892C9.38708 10.4558 9.3867 9.32239 9.38722 8.189C9.40528 8.05227 9.3048 7.90614 9.1588 7.90943C8.80903 7.90379 8.45879 7.90614 8.10901 7.90849C7.97683 7.89572 7.84786 8.00784 7.85783 8.14355C7.85536 9.74464 7.85574 11.346 7.85611 12.9474C7.85645 14.4032 7.8568 15.859 7.855 17.3147C7.86262 17.7376 7.58294 18.144 7.18395 18.2868C6.73182 18.4558 6.22796 18.3248 5.81759 18.1043C5.57108 17.9653 5.32452 17.8265 5.07796 17.6877C4.59593 17.4164 4.1139 17.145 3.63229 16.8724C3.58403 16.8496 3.54394 16.8125 3.51741 16.7662C3.49089 16.72 3.4792 16.6667 3.48394 16.6136C3.48394 15.5884 3.48399 14.5632 3.48404 13.5381C3.48414 11.4878 3.48425 9.43758 3.48394 7.3876C3.47067 7.26364 3.54548 7.15199 3.65694 7.10137C5.17481 6.24799 6.69224 5.39343 8.20972 4.53884C9.41947 3.85755 10.6293 3.17624 11.8393 2.4955C11.8867 2.4632 11.9427 2.44596 12.0001 2.44605C12.0574 2.44613 12.1134 2.46354 12.1607 2.49597C13.3657 3.17367 14.5706 3.85174 15.7754 4.52983C17.2981 5.3868 18.8208 6.24378 20.344 7.10004C20.4559 7.15058 20.5275 7.26411 20.5161 7.3876C20.5159 8.50587 20.516 9.62422 20.5161 10.7426C20.5162 12.6995 20.5163 14.6564 20.5151 16.6131C20.5232 16.722 20.4682 16.8274 20.3687 16.8752C18.9634 17.6684 17.5571 18.4599 16.1508 19.2514C14.8689 19.9729 13.5869 20.6944 12.3057 21.4172C12.2891 21.4264 12.2722 21.4363 12.255 21.4464C12.1381 21.5149 12.0058 21.5925 11.8749 21.5171C11.4715 21.2892 11.0709 21.0562 10.6704 20.8232C10.3716 20.6494 10.0729 20.4757 9.77303 20.3041C9.69673 20.2554 9.59955 20.2346 9.51996 20.2889C9.5009 20.2992 9.48184 20.3095 9.46277 20.3197C9.16698 20.4792 8.86976 20.6395 8.54788 20.7417C8.50694 20.7582 8.46347 20.7716 8.41974 20.785C8.30098 20.8215 8.18037 20.8586 8.10383 20.9616C8.19755 21.0901 8.33549 21.1666 8.4721 21.2424C8.50814 21.2624 8.5441 21.2824 8.57912 21.3032C8.95313 21.5194 9.32741 21.7352 9.70172 21.951C10.149 22.2089 10.5962 22.4668 11.0431 22.7253C11.5834 23.0698 12.3095 23.0943 12.8673 22.776C14.1646 22.0457 15.4617 21.3151 16.7589 20.5844C18.1988 19.7733 19.6388 18.9622 21.0791 18.1516C21.6241 17.8677 22.0038 17.2801 21.9999 16.6614V7.3398C22.0052 6.74564 21.6597 6.17178 21.1431 5.88132C19.5346 4.97336 17.9256 4.06655 16.3166 3.15974C15.1784 2.5182 14.0401 1.87666 12.9019 1.23471Z" fill="#1F222E"/>
<path d="M17.0322 8.23348C15.9578 7.64638 14.6797 7.61511 13.4858 7.69182C12.6233 7.77887 11.7161 8.02201 11.0877 8.65354C10.4432 9.28844 10.3029 10.3136 10.609 11.1424C10.8284 11.7281 11.3806 12.1089 11.9517 12.3104C12.6873 12.5756 13.4599 12.6577 14.2328 12.7397C14.9377 12.8145 15.6429 12.8894 16.3204 13.1033C16.5972 13.197 16.9195 13.3403 17.0042 13.6479C17.0825 14.0122 16.9967 14.4356 16.7071 14.6887C16.1868 15.1094 15.4811 15.1393 14.8361 15.1666C14.8008 15.1681 14.7657 15.1696 14.7308 15.1712C14.6626 15.1701 14.5939 15.1693 14.5248 15.1686C13.7709 15.1602 12.9699 15.1513 12.3204 14.7331C11.9531 14.4838 11.7948 14.0424 11.7304 13.6219C11.7233 13.4908 11.62 13.3706 11.4806 13.3805C11.1318 13.3763 10.783 13.3773 10.4341 13.3801C10.3124 13.3696 10.1859 13.4581 10.1792 13.585C10.1512 14.3361 10.4327 15.1144 11.009 15.6139C11.683 16.2077 12.5915 16.4367 13.4645 16.536C14.3929 16.6263 15.3417 16.6212 16.2559 16.4177C16.9432 16.2578 17.6322 15.9636 18.1053 15.4228C18.6887 14.7658 18.8033 13.7874 18.5417 12.9689C18.3417 12.3583 17.7701 11.9665 17.1858 11.765C16.3912 11.4867 15.5607 11.3769 14.7298 11.2671C14.0849 11.1818 13.4397 11.0965 12.811 10.9324C12.8003 10.929 12.7895 10.9257 12.7787 10.9223C12.5355 10.8463 12.2512 10.7574 12.1446 10.5047C12.0266 10.1371 12.127 9.6806 12.4578 9.45447C12.8887 9.15594 13.4355 9.11198 13.9441 9.08503C13.9623 9.08486 13.9805 9.08468 13.9988 9.0845C14.6794 9.07776 15.3982 9.07065 16.0204 9.3816C16.4366 9.59449 16.6777 10.0316 16.7772 10.473C16.7957 10.6027 16.8811 10.7379 17.028 10.7323C17.265 10.7371 17.5021 10.7362 17.7391 10.7353C17.8485 10.7349 17.9579 10.7345 18.0673 10.7346C18.1863 10.7432 18.3166 10.6745 18.3398 10.5501C18.3251 9.62763 17.864 8.68339 17.0322 8.23348Z" fill="#1F222E"/>
</svg>
