<svg width="36" height="36" viewBox="0 0 36 36" fill="none" xmlns="http://www.w3.org/2000/svg">
<path d="M13.6822 17.8923C13.2033 17.8923 12.812 18.0352 12.5133 18.3207C12.2147 18.6061 12.0628 18.981 12.0628 19.44C12.0628 19.6777 12.1002 19.8951 12.175 20.0939C12.2484 20.2928 12.3648 20.4764 12.5198 20.6432C12.6759 20.8103 12.9867 21.0367 13.4493 21.3255C14.0175 21.6749 14.3898 21.9584 14.5687 22.1791C14.7476 22.3999 14.837 22.6319 14.837 22.8735C14.837 23.1964 14.7316 23.4557 14.5128 23.6492C14.2953 23.8424 14.0043 23.9403 13.6417 23.9403C13.2615 23.9403 12.9296 23.8053 12.6441 23.537C12.3595 23.2679 12.2155 22.9132 12.211 22.4671H12.0355V24.0843H12.2113C12.2661 23.9316 12.3418 23.8523 12.4385 23.8523C12.4869 23.8523 12.5969 23.8844 12.7693 23.9459C13.1878 24.0964 13.5306 24.1687 13.8009 24.1687C14.2655 24.1687 14.6632 24.0042 14.994 23.6712C15.3247 23.3382 15.4918 22.9363 15.4918 22.4671C15.4918 22.1035 15.3818 21.7792 15.1664 21.4979C14.949 21.2159 14.5293 20.8862 13.9008 20.5094C13.3605 20.182 13.0089 19.917 12.8461 19.7095C12.6832 19.5019 12.6 19.2735 12.6 19.0218C12.6 18.7493 12.7001 18.5308 12.8956 18.3671C13.0924 18.2045 13.3484 18.1229 13.6713 18.1229C14.0315 18.1229 14.3339 18.2318 14.5721 18.4484C14.8106 18.6669 14.9478 18.9678 14.9883 19.3557H15.1664V17.9539H15.0018C14.9808 18.0265 14.9622 18.0715 14.9456 18.0923C14.9282 18.1131 14.8972 18.1232 14.848 18.1232C14.7909 18.1232 14.6897 18.099 14.5448 18.0518C14.2338 17.9463 13.9472 17.8915 13.6822 17.8915V17.8923ZM19.4743 17.8923C18.8898 17.8923 18.3605 18.0307 17.8802 18.3086C17.4001 18.5856 17.0198 18.9689 16.7386 19.4589C16.4596 19.948 16.3189 20.4686 16.3189 21.0224C16.3189 21.766 16.5617 22.4297 17.0496 23.0108C17.5396 23.5921 18.124 23.9547 18.8029 24.093C18.959 24.1743 19.1809 24.3841 19.4723 24.7259C19.7994 25.1084 20.0764 25.3851 20.3048 25.5499C20.5277 25.7122 20.7761 25.8361 21.0397 25.9167C21.299 25.996 21.5803 26.0354 21.8846 26.0354C22.2528 26.0354 22.5835 25.9707 22.8735 25.8376L22.8088 25.6751C22.636 25.7368 22.4537 25.7676 22.2702 25.7662C22.0143 25.7662 21.7538 25.6818 21.4937 25.5091C21.2332 25.3376 20.9081 25.0105 20.5203 24.5281C20.3377 24.2964 20.2114 24.1501 20.1411 24.093C20.8836 23.9468 21.4956 23.5854 21.9726 23.0054C22.4482 22.4252 22.6867 21.764 22.6867 21.0224C22.6867 20.1412 22.3757 19.4018 21.7572 18.7988C21.1384 18.1955 20.3774 17.8923 19.4743 17.8923ZM23.0909 17.8923L23.1007 18.0836C23.4888 18.0836 23.7071 18.1978 23.7555 18.4295C23.7743 18.513 23.783 18.6669 23.7853 18.8865L23.7808 23.1053C23.7774 23.4206 23.7335 23.6217 23.6478 23.7086C23.5623 23.7952 23.416 23.8503 23.2062 23.8711L23.1963 24.0624H27.0768L27.1766 23.1053H26.9988C26.9482 23.3657 26.8329 23.5525 26.6473 23.6579C26.4625 23.7645 26.134 23.8183 25.6629 23.8183H25.2948C24.8695 23.8183 24.6234 23.6624 24.5587 23.3525C24.5459 23.2863 24.5396 23.2189 24.5399 23.1514L24.5542 18.8865C24.5542 18.5724 24.5936 18.3614 24.6763 18.2582C24.7587 18.155 24.908 18.0988 25.1246 18.0836L25.1145 17.8923H23.0909ZM19.5378 18.1229C20.196 18.1229 20.7354 18.3845 21.1505 18.9107C21.5668 19.4392 21.7724 20.1609 21.7724 21.0749C21.7724 21.9418 21.5637 22.6362 21.1452 23.1582C20.7264 23.681 20.1684 23.94 19.474 23.94C18.8083 23.94 18.2688 23.6723 17.8557 23.1329C17.4417 22.5945 17.2361 21.8956 17.2361 21.0344C17.2361 20.1513 17.4439 19.4437 17.8613 18.9138C18.2787 18.3868 18.8381 18.1229 19.5378 18.1229ZM28.4599 19.0305C28.3654 19.0305 28.2929 19.0634 28.2392 19.1273C28.1843 19.192 28.1677 19.269 28.1863 19.3644C28.2051 19.4569 28.2566 19.5371 28.339 19.6063C28.4206 19.6732 28.5094 19.7095 28.6039 19.7095C28.6449 19.7108 28.6855 19.7021 28.7223 19.6841C28.759 19.6661 28.7908 19.6394 28.8149 19.6063C28.8641 19.5371 28.8796 19.4569 28.861 19.3644C28.8413 19.2708 28.7896 19.1869 28.7148 19.1273C28.644 19.0658 28.5537 19.0316 28.4599 19.0305ZM31.0188 19.6774C30.8584 20.2995 30.5089 20.6365 29.975 20.6905L29.9807 20.8685H30.6056L30.5935 22.9756C30.5946 23.3373 30.6048 23.5767 30.6298 23.6984C30.6914 23.9909 30.8823 24.1392 31.1999 24.1392C31.6592 24.1392 32.1415 23.859 32.6447 23.2954L32.4928 23.1635C32.1283 23.5348 31.8074 23.7218 31.5253 23.7218C31.3526 23.7218 31.246 23.6217 31.2055 23.4239C31.1941 23.3684 31.1889 23.3117 31.19 23.2549L31.1968 20.8685H32.1502L32.1415 20.585H31.1999V19.6777L31.0188 19.6774ZM34.7088 20.4719C34.1749 20.4719 33.7421 20.7335 33.4026 21.251C33.0677 21.7694 32.9633 22.3439 33.0961 22.9756C33.1731 23.3469 33.3292 23.6338 33.5652 23.8371C33.8026 24.039 34.1024 24.1392 34.4607 24.1392C34.7948 24.1392 35.2606 24.0548 35.4563 23.8832C35.6515 23.7128 35.8329 23.4349 36 23.0547L35.8669 22.914C35.5998 23.4062 35.0617 23.6546 34.6576 23.6546C34.0993 23.6546 33.7587 23.348 33.6302 22.7363C33.6137 22.6535 33.6016 22.5698 33.5939 22.4857C34.2576 22.3802 34.7597 22.1932 35.098 21.9232C35.4375 21.6532 35.7781 21.3652 35.7142 21.0629C35.6801 20.8905 35.582 20.7375 35.4397 20.6345C35.2946 20.5279 34.9188 20.4719 34.709 20.4719H34.7088ZM28.8742 20.4939L27.7239 20.7597V20.9664L28.1216 20.9169C28.314 20.9169 28.427 21.0038 28.4633 21.1784C28.4754 21.2375 28.483 21.3191 28.4853 21.4223L28.4732 23.3151C28.4687 23.5755 28.4403 23.7285 28.382 23.7744C28.3249 23.8194 28.17 23.8424 27.9194 23.8424L27.9129 24.0216H29.7377L29.7343 23.8424C29.4817 23.8424 29.3169 23.8228 29.2444 23.7834C29.1718 23.7449 29.1226 23.6734 29.1003 23.5646C29.084 23.4867 29.0773 23.3514 29.0764 23.1646L29.0821 20.4939H28.8742ZM34.4168 20.8443C34.5276 20.8443 34.6365 20.8871 34.7442 20.9717C34.8508 21.0575 34.9158 21.1517 34.9363 21.2541C35.0406 21.7561 34.5979 22.1046 33.5992 22.2978C33.5719 21.9308 33.6344 21.5981 33.795 21.298C33.9553 20.997 34.164 20.8443 34.4165 20.8443H34.4168ZM3.23772 21.5157C3.2366 21.5289 3.2366 21.5334 3.23547 21.541C3.2366 21.5719 3.23772 21.6037 3.23772 21.6344C3.23885 21.6135 3.23885 21.6034 3.23885 21.5804L3.23772 21.5157Z" fill="black"/>
<path d="M13.4187 10.3107C12.7398 9.70203 11.9202 9.94587 11.1082 10.6698C10.9842 10.7832 10.8644 10.9004 10.7491 11.0247C9.36251 12.5047 8.07607 15.2457 7.67613 17.3385C7.83082 17.6572 7.95288 18.0625 8.03332 18.3724C8.07382 18.5251 8.1101 18.6809 8.14188 18.837C8.14188 18.837 8.12866 18.7898 8.07832 18.6402L8.04513 18.5448C8.03868 18.5269 8.03136 18.5094 8.0232 18.4922C7.93319 18.2802 7.68288 17.833 7.57291 17.6383C7.48528 17.896 7.40276 18.1554 7.32541 18.4163C7.64323 19.0018 7.83644 20.0048 7.83644 20.0048C7.83644 20.0048 7.82013 19.939 7.73969 19.7126C7.66938 19.5115 7.31669 18.8885 7.23232 18.7437C7.08944 19.2752 7.03348 19.6347 7.08382 19.7216C7.18394 19.8906 7.27844 20.1828 7.36085 20.506C7.54985 21.2344 7.68035 22.1209 7.68035 22.1209L7.6916 22.268C7.6666 22.8743 7.679 23.4815 7.72873 24.0863C7.79032 24.8457 7.90788 25.4959 8.05723 25.8452L8.15848 25.789C7.93966 25.1027 7.84966 24.2016 7.88932 23.1646C7.94838 21.5784 8.31119 19.6645 8.98113 17.6704C10.1151 14.6602 11.6862 12.2442 13.1239 11.0906C11.8133 12.2814 10.0389 16.1387 9.50735 17.5658C8.91307 19.1652 8.49119 20.6652 8.23751 22.1032C8.67569 20.7552 10.0932 20.1761 10.0932 20.1761C10.0932 20.1761 10.7873 19.3137 11.5993 18.0822C11.1136 18.193 10.314 18.3842 10.0468 18.4973C9.65248 18.6643 9.54616 18.7203 9.54616 18.7203C9.54616 18.7203 10.8247 17.937 11.9213 17.5824C13.4297 15.1917 15.0733 11.7959 13.4187 10.3107ZM1.20626 10.6698C0.540539 10.6721 0.00222607 11.2146 -0.000305176 11.8837V22.8732C0.00222607 23.5426 0.541664 24.084 1.20626 24.0863H7.39938C7.35291 23.4906 7.34154 22.8926 7.36535 22.2956C7.36085 22.2537 7.35748 22.2019 7.3541 22.1625C7.2736 21.6338 7.16991 21.1088 7.04332 20.5892C6.96316 20.2784 6.86219 19.9949 6.8006 19.8906C6.72466 19.7598 6.73591 19.6853 6.73676 19.6037C6.73676 19.5247 6.74688 19.4423 6.76094 19.3489C6.80032 19.116 6.85094 18.8854 6.91479 18.6567L7.05766 18.6393C7.04641 18.616 7.04894 18.5952 7.03685 18.5743L7.01041 18.3229C7.08944 18.058 7.17298 17.7942 7.26213 17.5326L7.39263 17.5197C7.38841 17.5098 7.38616 17.4943 7.38054 17.4845L7.35326 17.2758C7.76726 15.106 9.05398 12.3506 10.5086 10.7983C10.5525 10.7522 10.5964 10.714 10.6394 10.6698H1.20626Z" fill="black"/>
</svg>
