<svg width="21" height="21" viewBox="0 0 21 21" fill="none" xmlns="http://www.w3.org/2000/svg">
<path d="M13.7824 2.04539C13.7824 1.46858 13.1365 1.46857 12.8495 1.54067C13.2513 1.22342 13.7226 1.30034 13.89 1.39647L17.7706 3.29927C18.1404 3.48058 18.3749 3.85783 18.3749 4.27125V16.7889C18.3749 17.2079 18.1341 17.5891 17.7569 17.7675L14.1053 19.4941C13.8541 19.6023 13.3087 19.8691 12.8495 19.4941C13.4236 19.6023 13.7345 19.1937 13.7824 18.9173V2.04539Z" fill="#1F222E"/>
<path d="M12.8961 1.53028C13.2008 1.47008 13.7824 1.498 13.7824 2.0454V6.35413L2.01704 15.2547C1.81139 15.4103 1.52198 15.3845 1.34681 15.1949L0.134224 13.8828C-0.0557391 13.6773 -0.0424478 13.3555 0.163815 13.1665L12.8495 1.54068L12.8961 1.53028Z" fill="#1F222E"/>
<path d="M13.7824 14.6807L2.01704 5.7801C1.81139 5.62453 1.52198 5.65034 1.34681 5.83988L0.134224 7.15199C-0.0557391 7.35754 -0.0424478 7.6793 0.163815 7.86833L12.8495 19.4941V19.4941C13.4236 19.6023 13.7346 19.1937 13.7824 18.9173V14.6807Z" fill="#1F222E"/>
</svg>
