<svg width="34" height="18" viewBox="0 0 34 18" fill="none" xmlns="http://www.w3.org/2000/svg">
<path d="M17.1168 4.00403C26.4404 4.17441 33.8944 10.0063 33.7662 17.0294C33.7621 17.2532 33.7513 17.4758 33.7321 17.6964H0.0631104C0.0148101 17.274 -0.00629382 16.8457 0.00158691 16.4132C0.129809 9.39003 7.79314 3.83397 17.1168 4.00403ZM25.1959 10.4415C24.7789 9.64549 23.8943 9.28579 23.2203 9.63879C22.5464 9.99185 22.3386 10.9238 22.7555 11.7198C23.1725 12.5159 24.0571 12.8756 24.7311 12.5226C25.4049 12.1695 25.6129 11.2376 25.1959 10.4415ZM9.52502 9.5304C8.82285 9.23739 7.97268 9.6727 7.62659 10.5021C7.28075 11.3314 7.57003 12.2413 8.27209 12.5343C8.97417 12.8269 9.82354 12.3918 10.1696 11.5626C10.5156 10.7333 10.2272 9.82339 9.52502 9.5304Z" fill="#E8E9F0"/>
<rect x="3.99963" y="1.42236" width="2.82936" height="7.53051" rx="1.41468" transform="rotate(-30.178 3.99963 1.42236)" fill="#E8E9F0"/>
<rect x="24.9044" y="0.00012207" width="2.82936" height="7.53051" rx="1.41468" transform="rotate(22.6893 24.9044 0.00012207)" fill="#E8E9F0"/>
</svg>
