<svg width="24" height="24" viewBox="0 0 24 24" fill="none" xmlns="http://www.w3.org/2000/svg">
<path d="M4.70628 3.31873L7.21878 3.33748C6.30003 4.25623 5.75628 5.43748 5.56878 6.76873L4.61253 6.74998C3.58128 6.71248 2.77503 5.94373 2.79378 5.00623C2.79378 4.04998 3.63753 3.31873 4.70628 3.31873ZM12.2438 17.7937C12.4125 18.2062 13.5375 20.4937 13.5375 20.4937H10.3313C10.3313 20.4937 11.3625 18.3375 11.5875 17.7937C11.775 17.3812 12.0563 17.3625 12.2438 17.7937Z" fill="#E8E9F0"/>
<path d="M21.5437 8.9813C21.3375 9.78755 20.5125 10.3875 19.5 10.3875H18.5625C18.5062 10.4063 18.4687 10.4438 18.4874 10.5V20.4938H16.7812L13.5 13.7063C13.8375 13.3313 14.0437 12.825 14.0437 12.2813C14.0437 11.3813 13.5187 10.575 12.7312 10.2563V9.33755C12.7312 8.9438 12.3937 8.66255 12 8.66255H11.9625C11.5687 8.66255 11.2312 9.00005 11.2312 9.3938V10.2563C10.3687 10.5375 9.7312 11.3438 9.7312 12.3188C9.7312 12.8813 9.9562 13.4063 10.3125 13.7813L7.12495 20.5125H4.3312C3.26245 20.5125 2.4187 19.65 2.4187 18.5813V5.5688C2.4187 5.5688 2.4187 5.4563 2.43745 5.5688C2.58745 6.4688 3.37495 7.16255 4.3312 7.1813H18.75C18.7312 7.1813 21.4875 6.93755 21.5437 8.9813Z" fill="#E8E9F0"/>
<path d="M11.8687 11.2125C12.45 11.2125 12.9375 11.7 12.9187 12.3C12.9187 12.8812 12.4312 13.3687 11.8312 13.35C11.25 13.35 10.7812 12.8625 10.7812 12.2812C10.7812 12 10.8937 11.7375 11.1 11.5312C11.325 11.325 11.5875 11.2125 11.8687 11.2125ZM12.3 10.5938V9.46875C12.3 9.3375 12.2437 9.225 12.1312 9.16875C11.9625 9.075 11.7562 9.13125 11.6625 9.3C11.625 9.35625 11.6062 9.4125 11.625 9.4875V10.575C10.6875 10.725 10.0312 11.6062 10.1812 12.5625V12.5812C10.2562 13.0312 10.5 13.4437 10.875 13.7062L6.88124 22.275C6.73124 22.575 6.74999 22.95 6.95624 23.2313C7.25624 23.6625 7.83749 23.775 8.26874 23.475C8.41874 23.3812 8.53124 23.2312 8.60624 23.0812L11.25 17.3438C11.4187 16.9688 11.8687 16.8 12.2625 16.9875C12.4125 17.0625 12.5437 17.1938 12.6187 17.3438L15.3375 23.025C15.5625 23.4938 16.125 23.6812 16.5937 23.4562C17.0625 23.2312 17.25 22.6688 17.025 22.2L12.9375 13.6688C13.6875 13.0688 13.8187 11.9625 13.2187 11.2125C12.9937 10.9125 12.675 10.7063 12.3 10.5938ZM14.925 2.41875H14.9062L15.9 0.69375C15.9562 0.6 15.9187 0.4875 15.8437 0.4125C15.75 0.375 15.6562 0.39375 15.6 0.46875L14.55 2.25C12.9187 1.51875 11.0437 1.51875 9.39374 2.25L8.38124 0.4875C8.34374 0.43125 8.26874 0.375 8.19374 0.375C8.11874 0.375 8.04374 0.4125 8.00624 0.4875C7.96874 0.5625 7.96874 0.6375 8.00624 0.69375L9.01874 2.41875C7.36874 3.3375 6.28124 4.9125 6.01874 6.75H17.9812C17.7 4.9125 16.575 3.3375 14.925 2.41875ZM9.59999 5.25L9.52499 5.325C9.43124 5.41875 9.29999 5.475 9.16874 5.475H9.18749C8.90624 5.475 8.68124 5.25 8.68124 4.9875V4.96875C8.68124 4.8375 8.73749 4.70625 8.83124 4.6125C8.99999 4.40625 9.31874 4.36875 9.52499 4.5375C9.76874 4.70625 9.78749 5.025 9.59999 5.25ZM14.7375 5.4375C14.4562 5.45625 14.2312 5.23125 14.2312 4.95V4.93125C14.2312 4.8 14.2875 4.66875 14.3812 4.575C14.5687 4.3875 14.8875 4.3875 15.0937 4.575C15.1875 4.66875 15.2437 4.8 15.2437 4.93125C15.2437 5.23125 15.0187 5.4375 14.7375 5.4375ZM19.8187 10.875H19.0312C18.9937 10.8938 18.9562 10.9312 18.9562 10.9875V23.4562C18.9562 23.5125 18.9937 23.55 19.05 23.55H19.875C20.8312 23.55 21.6 22.7625 21.6 21.825C21.6 21.825 21.5812 10.3687 21.6 9.9375C21.6187 9.4875 21.5062 9.80625 21.4687 9.9C21.1875 10.5 20.5687 10.8937 19.8562 10.8937H19.8187V10.875Z" fill="#E8E9F0"/>
<path d="M11.8687 12.8813C12.2001 12.8813 12.4687 12.6126 12.4687 12.2813C12.4687 11.9499 12.2001 11.6813 11.8687 11.6813C11.5374 11.6813 11.2687 11.9499 11.2687 12.2813C11.2687 12.6126 11.5374 12.8813 11.8687 12.8813Z" fill="#E8E9F0"/>
</svg>
