<svg width="24" height="24" viewBox="0 0 24 24" fill="none" xmlns="http://www.w3.org/2000/svg">
<path d="M16.5034 0H16.3429C15.1419 0.156132 13.8882 0.857894 13.204 1.64633C12.4668 2.49256 11.8583 3.57687 11.9652 5.12181C13.5699 5.24571 14.5618 4.42893 15.2863 3.5866C16.0246 2.73843 16.6323 1.56743 16.5034 0Z" fill="#E8E9F0"/>
<path d="M21.2 16.1325V16.0889C19.6303 15.3549 18.3735 14.1098 18.1991 11.9811C18.003 9.63804 19.1515 8.26591 20.6044 7.35523C19.8512 6.19563 18.6322 5.44414 16.9146 5.18855C15.5951 4.9928 14.5693 5.36233 13.5491 5.72983C13.4645 5.7603 13.38 5.79075 13.2953 5.82086C13.2035 5.85384 13.1119 5.89018 13.0206 5.92645C12.7364 6.03924 12.454 6.15132 12.1705 6.15952C11.7373 6.17236 11.2851 5.98292 10.8851 5.81531C10.7746 5.76901 10.668 5.72437 10.567 5.68612C10.0747 5.50276 9.5127 5.31718 8.96257 5.23328C7.67893 5.03992 6.52648 5.4722 5.68803 5.97977C4.09914 6.93434 2.90409 8.90378 2.79999 11.326V12.3206C3.04571 15.7053 4.36687 18.3501 6.07622 20.3976C6.65597 21.0904 7.45183 21.8594 8.43783 22H8.89571C9.46959 21.9203 9.94574 21.7394 10.4175 21.5602C11.0497 21.3201 11.6739 21.0829 12.515 21.0963C13.2058 21.1079 13.7756 21.326 14.3407 21.5423C14.9115 21.7608 15.4775 21.9775 16.1583 21.9775C17.6493 21.9775 18.5164 20.7957 19.2141 19.8448C19.2501 19.7958 19.2856 19.7473 19.3208 19.6997C20.1059 18.6301 20.7492 17.4774 21.2 16.1325Z" fill="#E8E9F0"/>
</svg>
