<svg width="24" height="24" viewBox="0 0 24 24" fill="none" xmlns="http://www.w3.org/2000/svg">
<path d="M7.92674 10.7434C7.83497 10.6235 7.69947 10.5449 7.5499 10.5247C7.40033 10.5046 7.24886 10.5445 7.12866 10.6358C7.05794 10.6916 7.00089 10.7628 6.96188 10.844L2.06176 20.6517C1.99235 20.7907 1.98095 20.9516 2.03006 21.099C2.07917 21.2464 2.18477 21.3682 2.32365 21.4378C2.40482 21.4788 2.49457 21.5001 2.58554 21.4998H9.41262C9.52197 21.5026 9.62976 21.4734 9.7228 21.4159C9.81583 21.3583 9.89006 21.2749 9.93641 21.1757C11.4099 18.1308 10.5167 13.5014 7.92674 10.7434Z" fill="#E8E9F0"/>
<path d="M11.5286 1.81825C10.3071 3.6989 9.59518 5.86495 9.46276 8.10391C9.33034 10.3429 9.78195 12.5778 10.7733 14.5894L14.0649 21.1757C14.1135 21.273 14.1882 21.3549 14.2808 21.4122C14.3733 21.4694 14.4799 21.4997 14.5886 21.4998H21.4144C21.4913 21.5 21.5676 21.4849 21.6388 21.4555C21.7099 21.4261 21.7746 21.383 21.829 21.3285C21.8834 21.2741 21.9266 21.2094 21.956 21.1382C21.9853 21.067 22.0004 20.9907 22.0002 20.9137C22.0002 20.8229 21.9795 20.7332 21.9395 20.6517L12.5252 1.81549C12.4805 1.7211 12.41 1.64135 12.3218 1.5855C12.2336 1.52965 12.1313 1.5 12.0269 1.5C11.9225 1.5 11.8203 1.52965 11.7321 1.5855C11.6439 1.64135 11.5733 1.7211 11.5286 1.81549V1.81825Z" fill="#E8E9F0"/>
</svg>
