<svg width="24" height="24" viewBox="0 0 24 24" fill="none" xmlns="http://www.w3.org/2000/svg">
<path d="M6.59995 6.54368L5.0437 4.98743V16.1812L5.06245 16.7062C5.06245 16.9499 5.09995 17.2312 5.1937 17.5124L17.4937 21.8437L20.5499 20.4937L6.59995 6.54368Z" fill="#E8E9F0"/>
<path d="M20.5499 20.4938L17.4937 21.8438L5.2312 17.5126C5.47495 18.4126 5.9812 19.4063 6.5437 19.9876L10.5375 23.9626L19.4625 23.9813L20.5499 20.4938Z" fill="#E8E9F0"/>
<path d="M0.318729 12.2063C-0.0750215 12.6188 0.131228 13.5 0.749978 14.1563L3.50623 16.9313L5.23123 17.55C5.17498 17.2688 5.09998 16.9875 5.09998 16.7438L5.08123 16.2188L5.04373 5.00625M20.55 20.4938L21.9 17.4188L17.5875 5.11875C17.3062 5.0625 17.025 5.00625 16.7812 4.9875L16.2375 4.96875L5.06248 4.9875" fill="#E8E9F0"/>
<path d="M17.55 5.11877C17.5875 5.11877 17.5875 5.11877 17.55 5.11877C17.5875 5.11877 17.5875 5.11877 17.55 5.11877ZM20.55 20.4938L23.8687 19.4063V10.275L20.0437 6.43127C19.4812 5.86877 18.4875 5.34377 17.5687 5.11877L21.9 17.4188" fill="#E8E9F0"/>
<path d="M16.9688 3.4125L14.1938 0.656249C13.5563 0.0187489 12.6938 -0.168751 12.2438 0.224999L5.04376 4.9875H16.2L16.7438 5.00625C16.9875 5.00625 17.2688 5.04375 17.55 5.1375L16.9688 3.4125Z" fill="#E8E9F0"/>
</svg>
