<svg width="45" height="45" viewBox="0 0 45 45" fill="none" xmlns="http://www.w3.org/2000/svg">
<path d="M4.94399 26.2969C4.13083 26.1872 3.29728 25.7576 2.71228 25.1462C2.28794 24.7054 2.02673 24.2824 1.82774 23.7182C1.68923 23.3241 1.67798 23.233 1.67798 22.4948C1.67798 21.7558 1.68923 21.6637 1.82774 21.2696C2.52806 19.2699 4.69403 18.1934 6.68106 18.8554C7.88411 19.2551 8.85759 20.307 9.18735 21.5621C9.30829 22.0223 9.30935 22.905 9.19017 23.3983C8.73278 25.2826 6.86774 26.5553 4.94399 26.2973V26.2969ZM6.2156 23.7182C6.72079 22.7074 7.13423 21.8574 7.13423 21.8285C7.13423 21.7955 6.88427 21.7748 6.49579 21.7748H5.857V20.5953C5.857 19.9456 5.83942 19.4319 5.81833 19.4527C5.73888 19.5325 3.90583 23.1346 3.92622 23.1729C3.93712 23.1951 4.23243 23.2126 4.58118 23.2126H5.21716V24.3841C5.21716 25.0281 5.23474 25.5555 5.25829 25.5555C5.28044 25.5555 5.71181 24.7289 6.2156 23.7182ZM17.8748 25.8205C17.596 25.7492 17.1921 25.5365 17.0522 25.3867C16.6978 25.0063 16.5839 24.1619 16.8215 23.6714C17.029 23.2401 17.4972 22.9532 18.1782 22.8365C18.5256 22.776 19.1932 22.7939 19.5528 22.8737C19.697 22.9054 19.6984 22.9012 19.6984 22.647C19.6984 22.1031 19.5156 21.7421 19.1492 21.5512C18.9611 21.4534 18.8469 21.4373 18.4215 21.4439C18.1424 21.4496 17.7785 21.4865 17.6111 21.5262L17.3074 21.6004L17.2733 21.3546C17.2072 20.8864 17.2005 20.9057 17.4888 20.8273C17.6358 20.7876 18.045 20.7422 18.3979 20.7257C18.9102 20.7025 19.1025 20.7148 19.3524 20.7876C19.9828 20.9714 20.3452 21.3641 20.4809 22.0124C20.5267 22.2321 20.5484 22.8667 20.5499 24.0174L20.5513 25.7024L20.1378 25.7657C19.5915 25.8494 18.1276 25.8852 17.8748 25.8205ZM19.4512 25.1491L19.6984 25.115V24.3528C19.6984 23.824 19.6794 23.5793 19.6351 23.5533C19.601 23.5315 19.3303 23.5027 19.0325 23.49C18.3417 23.4584 17.9736 23.5547 17.7345 23.8265C17.5918 23.9885 17.57 24.056 17.57 24.3088C17.57 24.7852 17.7001 24.9567 18.181 25.1079C18.4145 25.1817 19.0613 25.2028 19.4512 25.1491ZM22.1291 25.7699C21.9273 25.7161 21.7434 25.6518 21.7199 25.6272C21.6801 25.5857 21.7874 24.9926 21.845 24.9346C21.8587 24.9212 22.0222 24.9652 22.2075 25.0295C22.6606 25.1888 23.677 25.2081 23.9421 25.0626C24.1699 24.9388 24.2771 24.7715 24.2771 24.5447C24.2771 24.1492 23.9846 23.9144 22.9725 23.5027C22.0591 23.1304 21.768 22.7967 21.768 22.1239C21.768 21.4605 22.1182 21.0168 22.802 20.8083C23.1166 20.7134 23.2593 20.7011 23.7385 20.7257C24.3854 20.7587 24.8635 20.8561 24.8635 20.9563C24.8635 21.0291 24.7521 21.58 24.7331 21.6018C24.7261 21.6102 24.5338 21.5677 24.3042 21.5086C23.8113 21.3835 23.4819 21.374 23.1345 21.4798C22.7584 21.5923 22.6262 21.7392 22.6262 22.0469C22.6262 22.4698 22.7967 22.603 23.9104 23.0534C24.7261 23.3817 25.0365 23.6827 25.1258 24.2304C25.2548 25.02 24.8702 25.5804 24.0518 25.7984C23.6383 25.9084 22.585 25.8933 22.1291 25.7699ZM27.2584 25.7931C26.9219 25.6887 26.6516 25.4444 26.4772 25.0886L26.3274 24.7838V19.4087L26.5665 19.369C26.7045 19.3472 26.8422 19.3237 26.9796 19.2987L27.1525 19.2688V20.8164H29.0162V21.5086H27.1476L27.1641 23.0133C27.1779 24.409 27.1874 24.5324 27.289 24.7247C27.3494 24.8414 27.4788 24.9761 27.58 25.0309C27.8261 25.1628 28.3932 25.1628 28.7694 25.0295L29.0524 24.9311L29.1332 25.2714C29.2102 25.5913 29.2102 25.6145 29.1195 25.6627C28.7406 25.8659 27.7228 25.9373 27.2587 25.7931H27.2584ZM12.4049 22.4673V19.1672H16.3986V19.9115H13.3073L13.3224 20.9373L13.3361 21.9618L14.7079 21.9755L16.0783 21.9906V22.7335H13.3101V25.7685H12.4052L12.4049 22.4673ZM29.5477 25.7411C29.5477 25.6806 30.5268 23.0604 30.8907 22.1485C31.1549 21.4916 31.4301 20.8393 31.7162 20.1917L32.1722 19.1672H32.6102C32.9822 19.1672 33.0539 19.1809 33.0785 19.259C33.0936 19.3114 33.2845 19.7476 33.5028 20.2314C33.9792 21.2917 34.5466 22.7075 35.1903 24.4417C35.454 25.1519 35.6713 25.7425 35.6713 25.752C35.6713 25.7629 35.4515 25.766 35.1826 25.7576L34.6936 25.7411L34.3968 24.917L34.0987 24.0916L32.5828 24.0764L31.0651 24.0627L30.7659 24.9019L30.4678 25.7411L30.0076 25.7576C29.7552 25.7657 29.5477 25.759 29.5477 25.7411ZM33.8076 23.3048C33.8076 23.1332 32.6499 20.2314 32.5814 20.2314C32.4949 20.2314 31.3579 23.0808 31.3579 23.2967C31.3579 23.3599 31.5622 23.3719 32.5828 23.3719C33.5345 23.3719 33.8076 23.3568 33.8076 23.3051V23.3048ZM36.6296 22.5V19.2316L36.8029 19.1971C37.1763 19.1243 38.97 19.0987 39.3036 19.163C40.0658 19.3057 40.6466 19.6162 40.931 20.0296C41.4337 20.7616 41.3511 22.0001 40.7605 22.5921C40.3034 23.0492 39.5838 23.2608 38.3463 23.3062L37.5349 23.335V25.7685H36.6296V22.5ZM39.4052 22.4164C40.0412 22.217 40.3115 21.8517 40.3115 21.1912C40.3115 20.2806 39.6756 19.8605 38.2995 19.8591C38.0622 19.8591 37.7915 19.8732 37.7008 19.8921L37.5349 19.9252V22.5893L38.3118 22.5507C38.823 22.526 39.1992 22.4793 39.4052 22.4164ZM42.4856 22.467V19.1672H43.3905V25.7685H42.4856V22.467Z" fill="#E8E9F0"/>
</svg>
