<svg width="33" height="33" viewBox="0 0 33 33" fill="none" xmlns="http://www.w3.org/2000/svg">
<path d="M24.2202 21.4949C23.2227 21.4697 22.4496 21.5709 21.8012 21.8493C21.6142 21.9252 21.3149 21.9253 21.29 22.1658C21.3897 22.2671 21.4022 22.4316 21.4895 22.5708C21.6393 22.8239 21.9009 23.1657 22.1379 23.343C22.3997 23.5454 22.6616 23.7479 22.9358 23.9251C23.4222 24.2289 23.9709 24.4061 24.4447 24.7099C24.7191 24.8869 24.9932 25.1149 25.2676 25.3047C25.4048 25.4058 25.492 25.5706 25.6666 25.6338V25.5959C25.5793 25.4819 25.5543 25.3174 25.4671 25.1908C25.3426 25.0642 25.2177 24.9503 25.093 24.8237C24.7314 24.3302 24.2826 23.8998 23.7963 23.5454C23.3973 23.2669 22.5244 22.8873 22.3623 22.4189C22.3623 22.4189 22.3498 22.4063 22.3374 22.3937C22.6117 22.3683 22.9358 22.2671 23.1978 22.1911C23.6217 22.0771 24.0082 22.1025 24.4447 21.9886C24.6441 21.938 24.8437 21.8747 25.0431 21.8114V21.6975C24.8188 21.4697 24.6567 21.1659 24.4197 20.9507C23.7838 20.3937 23.0855 19.8495 22.3623 19.3939C21.9758 19.1407 21.4769 18.9762 21.0655 18.7611C20.916 18.685 20.6665 18.6471 20.5793 18.5205C20.3548 18.2421 20.2301 17.8751 20.068 17.546C19.7065 16.8498 19.3573 16.0778 19.0455 15.3437C18.8212 14.85 18.684 14.3564 18.4097 13.9008C17.1253 11.7491 15.7288 10.4454 13.5842 9.167C13.1228 8.90124 12.5742 8.78732 11.9881 8.64815C11.6765 8.63542 11.3647 8.61017 11.053 8.59744C10.8535 8.50883 10.6539 8.2684 10.4793 8.15447C9.76874 7.69877 7.93566 6.71163 7.41198 8.0153C7.07528 8.83795 7.9108 9.64794 8.19747 10.0657C8.40961 10.3568 8.68382 10.6859 8.83346 11.015C8.92075 11.23 8.94562 11.458 9.03292 11.6858C9.23251 12.2426 9.41943 12.8629 9.68138 13.3819C9.81855 13.6476 9.96813 13.9261 10.1427 14.1666C10.2425 14.3057 10.417 14.3691 10.4545 14.5969C10.28 14.85 10.2674 15.2298 10.1676 15.5462C9.71872 16.9764 9.89337 18.7484 10.5292 19.7989C10.7287 20.1152 11.2026 20.8116 11.8385 20.5457C12.3996 20.3179 12.2749 19.5964 12.4369 18.9636C12.4745 18.8115 12.4495 18.7104 12.5243 18.6092V18.6345C12.6989 18.9888 12.8734 19.3307 13.0355 19.685C13.4221 20.3052 14.0953 20.9507 14.6564 21.3811C14.9558 21.6088 15.1927 22.0012 15.5668 22.1405V22.1024H15.5418C15.4669 21.9885 15.3547 21.938 15.255 21.8493C15.0306 21.6216 14.7811 21.3431 14.6066 21.0899C14.083 20.381 13.6215 19.5964 13.2101 18.7863C13.0106 18.394 12.836 17.9636 12.6739 17.5713C12.599 17.4193 12.599 17.1916 12.4744 17.1157C12.2873 17.3941 12.0131 17.6346 11.8759 17.9763C11.6391 18.5205 11.6141 19.1914 11.5268 19.8874C11.4769 19.9002 11.5018 19.8874 11.4768 19.9129C11.0779 19.8115 10.9407 19.3939 10.791 19.0395C10.4169 18.1409 10.3546 16.698 10.6789 15.6601C10.7662 15.3943 11.1403 14.559 10.9906 14.3058C10.9158 14.0653 10.6663 13.9261 10.5292 13.7362C10.3672 13.4957 10.1925 13.1921 10.0804 12.9262C9.78107 12.2174 9.63142 11.4326 9.30727 10.7238C9.15762 10.3947 8.89589 10.0531 8.68382 9.74928C8.44695 9.40758 8.18507 9.167 7.99802 8.762C7.93574 8.62283 7.84837 8.39498 7.94813 8.24308C7.97308 8.14181 8.02289 8.10391 8.12272 8.07859C8.28484 7.93928 8.74624 8.11649 8.90821 8.19244C9.36962 8.38218 9.75613 8.55954 10.1427 8.82529C10.3172 8.95188 10.5043 9.19239 10.7287 9.25568H10.9906C11.3896 9.34421 11.8384 9.281 12.2125 9.39485C12.8734 9.60997 13.4719 9.92643 14.0081 10.2682C15.6416 11.3187 16.9881 12.8123 17.8984 14.5969C18.0481 14.8879 18.1104 15.1538 18.2475 15.4575C18.5095 16.0778 18.8337 16.7106 19.0954 17.3181C19.3573 17.9129 19.6066 18.5205 19.9807 19.0142C20.1678 19.2799 20.9159 19.4192 21.2526 19.5585C21.502 19.6723 21.8885 19.7737 22.1129 19.9128C22.5369 20.1785 22.9608 20.4825 23.3598 20.7735C23.5594 20.9254 24.1827 21.2418 24.2202 21.4949Z" fill="#E8E9F0"/>
<path d="M11.5017 10.496C11.2898 10.496 11.1402 10.5214 10.9906 10.5593V10.5847H11.0155C11.1154 10.7872 11.2898 10.9264 11.4145 11.1036C11.5143 11.306 11.6015 11.5086 11.7013 11.7112C11.7137 11.6984 11.7262 11.6859 11.7262 11.6859C11.9009 11.5592 11.9881 11.3567 11.9881 11.0529C11.9133 10.9644 11.9008 10.8758 11.8384 10.7872C11.7637 10.6605 11.6015 10.5973 11.5017 10.496Z" fill="#E8E9F0"/>
</svg>
