<svg width="24" height="24" viewBox="0 0 24 24" fill="none" xmlns="http://www.w3.org/2000/svg">
<path d="M11.9243 1.5C6.59322 1.5 6.92608 3.82397 6.92608 3.82397L6.932 6.23167H12.0194V6.95452H4.91138C4.91138 6.95452 1.5 6.56561 1.5 11.9728C1.5 17.3801 4.47753 17.1883 4.47753 17.1883H6.25451V14.6791C6.25451 14.6791 6.15872 11.686 9.18452 11.686H14.2303C14.2303 11.686 17.0652 11.7321 17.0652 8.9319V4.30199C17.0652 4.30199 17.4957 1.5 11.9243 1.5ZM9.11915 3.11913C9.23936 3.11902 9.35842 3.14274 9.46951 3.18894C9.5806 3.23514 9.68154 3.3029 9.76654 3.38835C9.85155 3.4738 9.91896 3.57526 9.96492 3.68693C10.0109 3.7986 10.0345 3.91828 10.0344 4.03913C10.0345 4.15998 10.0109 4.27966 9.96492 4.39133C9.91896 4.50299 9.85155 4.60446 9.76654 4.68991C9.68154 4.77536 9.5806 4.84312 9.46951 4.88932C9.35842 4.93551 9.23936 4.95924 9.11915 4.95913C8.99893 4.95924 8.87987 4.93551 8.76878 4.88932C8.65769 4.84312 8.55676 4.77536 8.47175 4.68991C8.38674 4.60446 8.31933 4.50299 8.27338 4.39133C8.22742 4.27966 8.20382 4.15998 8.20393 4.03913C8.20382 3.91828 8.22742 3.7986 8.27338 3.68693C8.31933 3.57526 8.38674 3.4738 8.47175 3.38835C8.55676 3.3029 8.65769 3.23514 8.76878 3.18894C8.87987 3.14274 8.99893 3.11902 9.11915 3.11913Z" fill="#E8E9F0"/>
<path d="M12.0758 22.5C17.4069 22.5 17.074 20.176 17.074 20.176L17.0681 17.7684H11.9806V17.0455H19.0886C19.0886 17.0455 22.5 17.4344 22.5 12.0271C22.5 6.61984 19.5225 6.81161 19.5225 6.81161H17.7455V9.32074C17.7455 9.32074 17.8413 12.3138 14.8155 12.3138H9.76971C9.76971 12.3138 6.93484 12.2678 6.93484 15.0681V19.6981C6.93484 19.6981 6.50445 22.5 12.0758 22.5ZM14.8809 20.881C14.7607 20.8811 14.6417 20.8574 14.5306 20.8112C14.4195 20.765 14.3185 20.6972 14.2335 20.6118C14.1485 20.5263 14.0811 20.4249 14.0352 20.3132C13.9892 20.2015 13.9656 20.0818 13.9657 19.961C13.9656 19.8401 13.9892 19.7205 14.0351 19.6088C14.0811 19.4971 14.1485 19.3956 14.2335 19.3102C14.3185 19.2247 14.4195 19.1569 14.5305 19.1107C14.6416 19.0645 14.7607 19.0408 14.8809 19.0409C15.0012 19.0408 15.1202 19.0645 15.2313 19.1107C15.3424 19.1569 15.4433 19.2247 15.5283 19.3101C15.6133 19.3956 15.6807 19.4971 15.7267 19.6087C15.7727 19.7204 15.7963 19.8401 15.7962 19.9609C15.7963 20.0818 15.7727 20.2014 15.7267 20.3131C15.6807 20.4248 15.6133 20.5262 15.5283 20.6117C15.4433 20.6971 15.3424 20.7649 15.2313 20.8111C15.1202 20.8573 15.0012 20.8811 14.8809 20.881Z" fill="#E8E9F0"/>
</svg>
