<svg width="24" height="24" viewBox="0 0 24 24" fill="none" xmlns="http://www.w3.org/2000/svg">
<path d="M9.36716 6.20381C8.20567 6.20381 7.26693 5.26432 7.26693 4.10191C7.26693 2.93949 8.20567 2 9.36716 2C10.5287 2 11.4674 2.93949 11.4674 4.10191V6.20381H9.36716Z" fill="#E8E9F0"/>
<path d="M4.11628 16.7452C5.27777 16.7452 6.21651 15.8057 6.21651 14.6433V12.5414H4.11628C2.95479 12.5414 2.01604 13.4808 2.01604 14.6433C2.01604 15.8057 2.95479 16.7452 4.11628 16.7452Z" fill="#E8E9F0"/>
<path d="M9.36716 12.5414C8.20567 12.5414 7.26693 13.4809 7.26693 14.6433V19.8981C7.26693 21.0605 8.20567 22 9.36716 22C10.5287 22 11.4674 21.0605 11.4674 19.8981V14.6433C11.4674 13.4809 10.5287 12.5414 9.36716 12.5414Z" fill="#E8E9F0"/>
<path d="M11.467 9.37258C11.467 8.21017 10.5282 7.27068 9.36673 7.27068H4.10024C2.93874 7.27068 2 8.21017 2 9.37258C2 10.535 2.93874 11.4745 4.10024 11.4745H9.36673C10.5282 11.4745 11.467 10.535 11.467 9.37258Z" fill="#E8E9F0"/>
<path d="M17.7838 9.37258C17.7838 8.21017 18.7226 7.27068 19.884 7.27068C21.0455 7.27068 21.9843 8.21017 21.9843 9.37258C21.9843 10.535 21.0455 11.4745 19.884 11.4745H17.7838V9.37258Z" fill="#E8E9F0"/>
<path d="M14.6332 11.4745C15.7947 11.4745 16.7334 10.535 16.7334 9.37259V4.10191C16.7334 2.93949 15.7947 2 14.6332 2C13.4717 2 12.5329 2.93949 12.5329 4.10191V9.37259C12.5329 10.535 13.4717 11.4745 14.6332 11.4745Z" fill="#E8E9F0"/>
<path d="M14.6332 17.7962C15.7947 17.7962 16.7334 18.7356 16.7334 19.8981C16.7334 21.0605 15.7947 22 14.6332 22C13.4717 22 12.5329 21.0605 12.5329 19.8981V17.7962H14.6332Z" fill="#E8E9F0"/>
<path d="M12.5329 14.6433C12.5329 15.8057 13.4717 16.7452 14.6332 16.7452H19.8997C21.0612 16.7452 21.9999 15.8057 21.9999 14.6433C21.9999 13.4808 21.0612 12.5414 19.8997 12.5414H14.6332C13.4717 12.5414 12.5329 13.4808 12.5329 14.6433Z" fill="#E8E9F0"/>
</svg>
